<svg width="584.5999999999999" height="229" xmlns="http://www.w3.org/2000/svg">
  <defs>
    <!-- Checkered pattern for empty bar (░ effect) -->
    <pattern id="checkered-pattern-dark" x="0" y="0" width="4.0" height="4.0" patternUnits="userSpaceOnUse">
      <rect width="2.0" height="2.0" x="0" y="0" fill="none" />
      <rect width="2.0" height="2.0" x="2.0" y="0" fill="#FFFFFF" />
      <rect width="2.0" height="2.0" x="0" y="2.0" fill="#FFFFFF" />
      <rect width="2.0" height="2.0" x="2.0" y="2.0" fill="none" />
    </pattern>
    <style>
      .lang-text { font-family: 'Courier New', Courier, monospace; font-size: 16px; fill: #FFFFFF; }
      .bar-filled { fill: #FFFFFF; }
      .bar-empty { fill: url(#checkered-pattern-dark); }
    </style>
  </defs>

  <!-- 3D Box Borders -->
  <g id="box-borders">
    <rect x="20" y="20" width="529.5999999999999" height="174" 
        fill="none" stroke="#FFFFFF" stroke-width="2" 
        rx="0" />
    <line x1="35" y1="194" 
            x2="35" y2="210.0" 
            stroke="#FFFFFF" stroke-width="2" />
    <line x1="549.5999999999999" y1="35" 
            x2="565.5999999999999" y2="35" 
            stroke="#FFFFFF" stroke-width="2" />
    <line x1="34.0" y1="209" 
            x2="565.5999999999999" y2="209" 
            stroke="#FFFFFF" stroke-width="2" />
    <line x1="564.5999999999999" y1="34.0" 
            x2="564.5999999999999" y2="210.0" 
            stroke="#FFFFFF" stroke-width="2" />
  </g>

  <!-- Language Statistics -->
  <g id="content">
    <text x="40" y="55" class="lang-text">Java           </text>
    <rect x="203.2" y="41" width="109.43999999999998" height="12" class="bar-filled" />
    <rect x="312.64" y="41" width="118.56000000000002" height="12" class="bar-empty" />
    <text x="450.4" y="55" class="lang-text"> 48.5 %</text>
    <text x="40" y="79" class="lang-text">TypeScript     </text>
    <rect x="203.2" y="65" width="45.599999999999994" height="12" class="bar-filled" />
    <rect x="248.79999999999998" y="65" width="182.4" height="12" class="bar-empty" />
    <text x="450.4" y="79" class="lang-text"> 22.0 %</text>
    <text x="40" y="103" class="lang-text">Python         </text>
    <rect x="203.2" y="89" width="27.359999999999996" height="12" class="bar-filled" />
    <rect x="230.55999999999997" y="89" width="200.64000000000001" height="12" class="bar-empty" />
    <text x="450.4" y="103" class="lang-text"> 12.4 %</text>
    <text x="40" y="127" class="lang-text">Go             </text>
    <rect x="203.2" y="113" width="27.359999999999996" height="12" class="bar-filled" />
    <rect x="230.55999999999997" y="113" width="200.64000000000001" height="12" class="bar-empty" />
    <text x="450.4" y="127" class="lang-text"> 10.7 %</text>
    <text x="40" y="151" class="lang-text">JavaScript     </text>
    <rect x="203.2" y="137" width="9.12" height="12" class="bar-filled" />
    <rect x="212.32" y="137" width="218.88" height="12" class="bar-empty" />
    <text x="450.4" y="151" class="lang-text">  3.3 %</text>
    <text x="40" y="175" class="lang-text">C              </text>
    <rect x="203.2" y="161" width="9.12" height="12" class="bar-filled" />
    <rect x="212.32" y="161" width="218.88" height="12" class="bar-empty" />
    <text x="450.4" y="175" class="lang-text">  3.1 %</text>
  </g>
</svg>